<svg xmlns="http://www.w3.org/2000/svg" viewBox="0 0 150 200"><defs><style>.cls-1{fill:none;stroke-width:4px;}.cls-1,.cls-2,.cls-3{stroke:#d2cdc5;stroke-miterlimit:10;}.cls-2{fill:#d2cdc5;}.cls-3{fill:#fff;stroke-width:6px;}.cls-4{fill:#373a3b;}</style></defs><title>Icons_Web_dezember</title><g id="Ebene_1" data-name="Ebene 1"><path class="cls-1" d="M14.75,87.73c0,4.25.17,33.8,24.33,54.33C57.71,157.9,78.9,158.44,84.75,158.4v12.67"/><line class="cls-1" x1="16.71" y1="87.73" x2="-0.67" y2="87.73"/></g><g id="Ebene_2" data-name="Ebene 2"><path class="cls-2" d="M24.18,103.29l16.31-3.83-.25-1.12L32.47,100l-.07-.31c0-.2-.11-.49-.16-.83-.11-.69-.29-1.61-.41-2.54s-.23-1.86-.29-2.56l-.08-1.17L39.39,92l-.08-1.14-16.74.68.12,1.85c0,1.11.23,2.58.41,4.05s.46,2.93.68,4Z"/><path class="cls-2" d="M30.66,119.77l14.55-8.3-.56-1-7,3.76s-.22-.41-.53-1-.75-1.46-1.11-2.32-.76-1.71-1-2.37l-.42-1.09L42,104.66s-.11-.26-.2-.54l-.18-.54L25.8,109A58.54,58.54,0,0,0,28,114.48c.57,1.37,1.3,2.67,1.78,3.67Z"/><path class="cls-2" d="M41.53,133.73l11.63-12.06-.82-.79-5.65,5.57-.8-.85c-.49-.51-1.13-1.19-1.72-1.91l-.89-1-.74-.95-.72-.93L48.18,116s-.17-.23-.33-.46l-.33-.47-13.7,9.64a59.27,59.27,0,0,0,3.64,4.68c.94,1.15,2,2.2,2.74,3S41.53,133.73,41.53,133.73Z"/><path class="cls-2" d="M55.87,144.07l7.77-14.84-1-.53-3.86,6.94-1-.59c-.61-.35-1.41-.83-2.19-1.35s-1.56-1-2.12-1.46l-.95-.69,4.79-6.33-.9-.71-10.44,13.1s.57.48,1.46,1.14,2.09,1.54,3.34,2.33,2.52,1.56,3.48,2.12c.48.29.9.48,1.18.64Z"/><path class="cls-2" d="M72.57,150l3.24-16.43-.56-.1c-.28,0-.56-.13-.56-.13L73,141l-1.14-.27c-.69-.15-1.59-.41-2.48-.68s-1.78-.57-2.45-.8l-1.1-.39,2.81-7.42L67.54,131l-6.32,15.51,1.72.69c1.06.35,2.44.9,3.87,1.29A58.66,58.66,0,0,0,72.57,150Z"/><path class="cls-2" d="M90.23,150.89l-1.5-16.68-1.14.07.51,7.92-1.17.08-2.58,0c-.94,0-1.87-.06-2.58-.08-.35,0-.64,0-.85-.05l-.32,0,.59-7.91-1.14-.1L78.4,150.82l1.85.16c1.11.09,2.59.13,4.07.15s3,0,4.07-.12Z"/><path class="cls-2" d="M107.45,146.79l-6.16-15.58-1.07.41,2.73,7.45s-.43.18-1.1.39-1.55.54-2.46.77c-1.8.53-3.64.9-3.64.9l-1.65-7.76-.56.12a5.39,5.39,0,0,1-.56.1l3.07,16.47.5-.09,1.31-.29,1.85-.42,2.1-.57c1.43-.4,2.83-.89,3.89-1.25Z"/><path class="cls-2" d="M122.82,138l-10.31-13.2-.9.7,4.73,6.37-1,.68c-.58.4-1.33,1-2.14,1.44s-1.58,1-2.2,1.33l-1,.58-3.78-7a5.59,5.59,0,0,1-.5.27l-.51.26,7.61,14.92a58.75,58.75,0,0,0,5.15-2.95c1.27-.77,2.45-1.67,3.37-2.29Z"/><path class="cls-2" d="M135.07,125.25l-13.6-9.78-.67.93,6.32,4.79-.73.92c-.44.55-1,1.29-1.65,2l-.91,1L123,126l-.81.84-5.6-5.63s-.2.21-.41.4l-.42.39,11.51,12.17s2.18-2,4.11-4.27c1-1.1,1.89-2.28,2.59-3.15S135.07,125.25,135.07,125.25Z"/><path class="cls-2" d="M143.25,109.55,127.44,104l-.19.54c-.09.27-.19.54-.19.54l7.42,2.81L134,109l-.45,1.11-.57,1.25c-.38.86-.8,1.69-1.14,2.31l-.54,1-7-3.83-.58,1,14.46,8.45s.39-.63.92-1.61,1.23-2.29,1.83-3.65,1.18-2.72,1.6-3.76c.22-.51.35-1,.46-1.26Z"/><path class="cls-2" d="M146.65,92.18l-16.73-.83,0,.57-.05.57,7.91.59-.1,1.17c0,.7-.19,1.63-.31,2.56s-.31,1.85-.44,2.54-.23,1.15-.23,1.15l-7.75-1.7-.27,1.11,16.26,4,.43-1.81c.19-1.1.53-2.55.71-4l.29-2.16.17-1.89C146.63,92.92,146.65,92.18,146.65,92.18Z"/><path class="cls-2" d="M145.08,74.78l-16.31,3.83.25,1.12,7.77-1.62.07.31c0,.2.11.49.16.83.11.69.29,1.61.41,2.54s.23,1.86.29,2.56l.08,1.17-7.92.52.08,1.14,16.74-.68-.12-1.85c0-1.11-.23-2.58-.41-4.05s-.46-2.93-.68-4Z"/><path class="cls-2" d="M138.59,58.3,124,66.6l.56,1,7-3.76s.22.41.53,1,.75,1.46,1.11,2.32.76,1.71,1,2.37l.42,1.09-7.45,2.73s.11.26.2.54l.18.54,15.87-5.37a58.54,58.54,0,0,0-2.17-5.53c-.57-1.37-1.3-2.67-1.78-3.67Z"/><path class="cls-2" d="M127.73,44.34,116.1,56.39l.82.79,5.65-5.57.8.85c.49.51,1.13,1.19,1.72,1.91l.89,1,.74.95.72.93L121.08,62s.17.23.33.46l.33.47,13.7-9.64a59.27,59.27,0,0,0-3.64-4.68c-.94-1.15-2-2.2-2.74-3S127.73,44.34,127.73,44.34Z"/><path class="cls-2" d="M113.39,34l-7.77,14.84,1,.53,3.86-6.94,1,.59c.61.35,1.41.83,2.19,1.35s1.56,1,2.12,1.46l.95.69L112,52.84l.9.71,10.44-13.1s-.57-.48-1.46-1.14-2.09-1.54-3.34-2.33S116,35.43,115,34.87c-.48-.29-.9-.48-1.18-.64Z"/><path class="cls-2" d="M96.68,28.11,93.44,44.54l.56.1c.28,0,.56.13.56.13L96.29,37l1.14.27c.69.15,1.59.41,2.48.68s1.78.57,2.45.8l1.1.39-2.81,7.42,1.06.43L108,31.51l-1.72-.69c-1.06-.35-2.44-.9-3.87-1.29A58.66,58.66,0,0,0,96.68,28.11Z"/><path class="cls-2" d="M79,27.18l1.5,16.68,1.14-.07-.51-7.92,1.17-.08,2.58,0c.94,0,1.87.06,2.58.08.35,0,.64,0,.85.05l.32,0-.59,7.91,1.14.1,1.66-16.67L89,27.08c-1.11-.09-2.59-.13-4.07-.15s-3,0-4.07.12Z"/><path class="cls-2" d="M61.8,31.27,68,46.85,69,46.44,66.3,39s.43-.18,1.1-.39,1.55-.54,2.46-.77c1.8-.53,3.64-.9,3.64-.9l1.65,7.76.56-.12a5.4,5.4,0,0,1,.56-.1L73.2,28l-.5.09-1.31.29-1.85.42-2.1.57c-1.43.4-2.83.89-3.89,1.25Z"/><path class="cls-2" d="M46.44,40.07l10.31,13.2.9-.7-4.73-6.37,1-.68c.58-.4,1.33-1,2.14-1.44s1.58-1,2.2-1.33l1-.58,3.78,7a5.59,5.59,0,0,1,.5-.27l.51-.26L56.43,33.7a58.75,58.75,0,0,0-5.15,2.95c-1.27.77-2.45,1.67-3.37,2.29Z"/><path class="cls-2" d="M34.19,52.82l13.6,9.78.67-.93-6.32-4.79.73-.92c.44-.55,1-1.29,1.65-2l.91-1,.83-.86.81-.84,5.6,5.63s.2-.21.41-.4l.42-.39L42,43.9s-2.18,2-4.11,4.27c-1,1.1-1.89,2.28-2.59,3.15S34.19,52.82,34.19,52.82Z"/><path class="cls-2" d="M26,68.51,41.82,74l.19-.54c.09-.27.19-.54.19-.54l-7.42-2.81.44-1.09L35.67,68l.57-1.25c.38-.86.8-1.69,1.14-2.31l.54-1,7,3.83.58-1L31,57.75s-.39.63-.92,1.61S28.84,61.65,28.24,63s-1.18,2.72-1.6,3.76c-.22.51-.35,1-.46,1.26Z"/><path class="cls-2" d="M22.61,85.88l16.73.83,0-.57.05-.57L31.5,85l.1-1.17c0-.7.19-1.63.31-2.56s.31-1.85.44-2.54.23-1.15.23-1.15l7.75,1.7.27-1.11-16.26-4L23.9,76c-.19,1.1-.53,2.55-.71,4l-.29,2.16L22.73,84C22.62,85.14,22.61,85.88,22.61,85.88Z"/><circle class="cls-3" cx="84.63" cy="88.4" r="56.67"/><circle class="cls-3" cx="84.29" cy="88.4" r="10.51"/><path class="cls-1" d="M57,58c-.53.39-1.3,1-2.19,1.79A35.13,35.13,0,0,0,44,92.14"/><path class="cls-1" d="M127.1,84.66c.12.65.28,1.62.4,2.8a35.13,35.13,0,0,1-14,31.08"/></g><g id="Ebene_3" data-name="Ebene 3"><rect class="cls-4" x="87.65" y="76.61" transform="translate(-28.5 84.42) rotate(-45)"/></g></svg>