<svg id="Ebene_1" data-name="Ebene 1" xmlns="http://www.w3.org/2000/svg" viewBox="0 0 150 200"><defs><style>.cls-1,.cls-4{fill:none;}.cls-1,.cls-4,.cls-5,.cls-6{stroke:#d2cdc5;}.cls-1,.cls-2,.cls-3,.cls-4,.cls-5,.cls-6{stroke-miterlimit:10;}.cls-1{stroke-width:4px;}.cls-2,.cls-3{fill:#373a3b;stroke:#bebebe;}.cls-3{opacity:0.14;}.cls-4,.cls-6{stroke-width:6px;}.cls-5,.cls-6{fill:#d2cdc5;}</style></defs><title>Zeichenfläche 16</title><line class="cls-1" x1="69.66" y1="90.36" x2="69.66" y2="158.65"/><line class="cls-2" x1="61.28" y1="75.89" x2="62.2" y2="75.89"/><line class="cls-2" x1="63.12" y1="75.89" x2="64.03" y2="75.89"/><line class="cls-3" x1="64.03" y1="112.94" x2="63.12" y2="112.94"/><line class="cls-2" x1="64.95" y1="75.89" x2="65.87" y2="75.89"/><line class="cls-2" x1="66.78" y1="75.89" x2="67.7" y2="75.89"/><line class="cls-2" x1="68.62" y1="75.89" x2="69.53" y2="75.89"/><line class="cls-2" x1="70.45" y1="75.89" x2="71.37" y2="75.89"/><line class="cls-2" x1="72.28" y1="75.89" x2="73.2" y2="75.89"/><line class="cls-2" x1="74.12" y1="75.89" x2="75.03" y2="75.89"/><line class="cls-2" x1="75.95" y1="75.89" x2="76.87" y2="75.89"/><line class="cls-2" x1="77.78" y1="75.89" x2="78.7" y2="75.89"/><line class="cls-2" x1="79.61" y1="75.89" x2="80.53" y2="75.89"/><line class="cls-2" x1="81.45" y1="75.89" x2="82.37" y2="75.89"/><line class="cls-2" x1="83.28" y1="75.89" x2="84.2" y2="75.89"/><line class="cls-2" x1="85.12" y1="75.89" x2="86.03" y2="75.89"/><line class="cls-3" x1="85.13" y1="112.94" x2="84.29" y2="112.94"/><polyline class="cls-4" points="45.28 52.38 45.28 59.59 57.87 74.9 91.28 74.9 103.87 59.59 103.87 52.38"/><polyline class="cls-4" points="32.3 24.71 32.3 38.85 45.87 53.17 103.88 53.17 118.43 37.86 118.43 24.71"/><polygon class="cls-5" points="41.04 24.71 41.04 37.28 48.66 45.33 53.66 45.28 53.66 24.71 41.04 24.71"/><polygon class="cls-5" points="71.48 144.98 68.66 141.52 81.25 124.93 81.25 132.17 71.48 144.98"/><polygon class="cls-5" points="68.49 136.4 68.51 129.72 81.33 112.42 81.33 119.08 68.49 136.4"/><polygon class="cls-5" points="70.57 120.96 70.72 114.03 76.09 107.09 80.85 107.09 70.57 120.96"/><polygon class="cls-5" points="54.57 59.75 54.57 60.32 61.2 68.37 66.2 68.32 66.2 59.75 54.57 59.75"/><line class="cls-1" x1="63.86" y1="61.26" x2="94.65" y2="61.26"/><line class="cls-6" x1="47.89" y1="27.2" x2="107.28" y2="27.2"/><polygon class="cls-5" points="71.49 157.81 68.68 154.36 81.26 137.77 81.26 145 71.49 157.81"/><line class="cls-4" x1="61.38" y1="77.17" x2="61.38" y2="163.17"/><line class="cls-4" x1="87.53" y1="77.77" x2="87.53" y2="163.77"/><line class="cls-4" x1="58.38" y1="165.62" x2="90.54" y2="165.62"/><line class="cls-1" x1="50.65" y1="174.36" x2="98.43" y2="174.36"/><line class="cls-1" x1="52.21" y1="113.4" x2="52.21" y2="176.35"/><line class="cls-1" x1="97" y1="113.4" x2="97" y2="176.32"/><line class="cls-1" x1="98.82" y1="115.44" x2="121.71" y2="115.44"/><line class="cls-1" x1="28.26" y1="115.44" x2="51.15" y2="115.44"/></svg>