<svg id="Ebene_1" data-name="Ebene 1" xmlns="http://www.w3.org/2000/svg" viewBox="0 0 150 200"><defs><style>.cls-1,.cls-2,.cls-3{fill:none;}.cls-1,.cls-3,.cls-4{stroke:#d2cdc5;stroke-miterlimit:10;}.cls-1{stroke-width:6px;}.cls-3{stroke-width:4px;}.cls-4{fill:#d2cdc5;}</style></defs><title>Zeichenfläche 16 Kopie 2</title><polygon class="cls-1" points="100.26 165.4 100.26 147.96 87.39 135.09 87.39 76.01 61.27 75.74 61.27 87.22 61.27 135.09 47.83 148.53 47.83 165.4 100.26 165.4"/><polyline class="cls-1" points="44.8 53.21 44.8 60.41 57.4 75.72 90.8 75.72 103.39 60.41 103.39 53.21"/><polyline class="cls-1" points="31.83 25.53 31.83 39.68 45.4 54 103.4 54 117.96 38.69 117.96 25.53"/><polygon class="cls-2" points="40.56 25.53 40.56 38.11 48.19 46.16 53.19 46.11 53.19 25.53 40.56 25.53"/><polygon class="cls-2" points="54.1 60.59 54.1 61.16 60.73 69.21 65.72 69.16 65.72 60.59 54.1 60.59"/><line class="cls-3" x1="63.22" y1="61.33" x2="94.01" y2="61.33"/><line class="cls-1" x1="47.41" y1="28.52" x2="106.81" y2="28.52"/><line class="cls-3" x1="69.24" y1="132.53" x2="69.24" y2="80.77"/><line class="cls-3" x1="76.7" y1="132.4" x2="76.7" y2="121.38"/><line class="cls-3" x1="28.83" y1="174.47" x2="121.17" y2="174.47"/><polygon class="cls-4" points="40.63 26.08 40.63 37.87 48.03 45.41 52.89 45.37 52.89 26.08 40.63 26.08"/><polygon class="cls-4" points="54.09 59.84 54.09 60.41 60.71 68.46 65.71 68.41 65.71 59.84 54.09 59.84"/></svg>