<svg id="Ebene_1" data-name="Ebene 1" xmlns="http://www.w3.org/2000/svg" viewBox="0 0 150 200"><defs><style>.cls-1,.cls-2{fill:none;}.cls-1,.cls-2,.cls-3,.cls-4,.cls-5{stroke:#d2cdc5;stroke-miterlimit:10;}.cls-1{stroke-width:4px;}.cls-2{stroke-width:6px;}.cls-3,.cls-4{fill:#373a3b;}.cls-4{opacity:0.14;}.cls-5{fill:#d2cdc5;}</style></defs><title>Icons_Web_dezember</title><line class="cls-1" x1="74.88" y1="123" x2="74.88" y2="72.6"/><line class="cls-1" x1="69.37" y1="132.44" x2="80.39" y2="132.44"/><line class="cls-1" x1="69.37" y1="127.1" x2="80.39" y2="127.1"/><polygon class="cls-2" points="100.24 164.65 100.24 147.21 87.38 134.35 87.38 75.27 61.25 74.99 61.25 86.47 61.25 134.35 47.82 147.78 47.82 164.65 100.24 164.65"/><line class="cls-3" x1="60.79" y1="75.97" x2="61.71" y2="75.97"/><line class="cls-3" x1="61.71" y1="126.02" x2="60.79" y2="126.02"/><line class="cls-3" x1="62.63" y1="75.97" x2="63.55" y2="75.97"/><line class="cls-4" x1="63.55" y1="126.02" x2="62.63" y2="126.02"/><line class="cls-3" x1="64.46" y1="75.97" x2="65.38" y2="75.97"/><line class="cls-3" x1="66.29" y1="75.97" x2="67.21" y2="75.97"/><line class="cls-3" x1="68.13" y1="75.97" x2="69.04" y2="75.97"/><line class="cls-3" x1="69.96" y1="75.97" x2="70.88" y2="75.97"/><line class="cls-3" x1="71.79" y1="75.97" x2="72.71" y2="75.97"/><line class="cls-3" x1="73.63" y1="75.97" x2="74.54" y2="75.97"/><line class="cls-3" x1="75.46" y1="75.97" x2="76.38" y2="75.97"/><line class="cls-3" x1="77.29" y1="75.97" x2="78.21" y2="75.97"/><line class="cls-3" x1="79.13" y1="75.97" x2="80.04" y2="75.97"/><line class="cls-3" x1="80.96" y1="75.97" x2="81.88" y2="75.97"/><line class="cls-3" x1="82.79" y1="75.97" x2="83.71" y2="75.97"/><line class="cls-3" x1="84.63" y1="75.97" x2="85.54" y2="75.97"/><line class="cls-4" x1="84.64" y1="126.02" x2="83.8" y2="126.02"/><line class="cls-3" x1="86.46" y1="75.97" x2="87.38" y2="75.97"/><line class="cls-3" x1="87.38" y1="126.02" x2="86.46" y2="126.02"/><polyline class="cls-2" points="44.79 52.46 44.79 59.67 57.38 74.98 90.79 74.98 103.38 59.67 103.38 52.46"/><polyline class="cls-2" points="31.82 24.79 31.82 38.93 45.38 53.25 103.39 53.25 117.94 37.94 117.94 24.79"/><polygon class="cls-5" points="40.55 24.79 40.55 37.36 48.18 45.41 53.18 45.36 53.18 24.79 40.55 24.79"/><polygon class="cls-5" points="54.09 59.84 54.09 60.41 60.71 68.46 65.71 68.41 65.71 59.84 54.09 59.84"/><line class="cls-1" x1="63.12" y1="61.09" x2="93.91" y2="61.09"/><line class="cls-2" x1="47.4" y1="27.28" x2="106.79" y2="27.28"/><line class="cls-1" x1="35.88" y1="173.64" x2="112.49" y2="173.64"/><line class="cls-1" x1="110.46" y1="145.91" x2="110.46" y2="175.11"/><line class="cls-1" x1="28.73" y1="147.94" x2="36.29" y2="147.92"/><line class="cls-1" x1="109.11" y1="147.9" x2="121.27" y2="147.9"/><line class="cls-1" x1="37.87" y1="145.91" x2="37.87" y2="175.21"/></svg>