<svg xmlns="http://www.w3.org/2000/svg" viewBox="0 0 150 200"><defs><style>.cls-1{fill:#d2cdc5;}.cls-2{fill:none;stroke:#d2cdc5;stroke-miterlimit:10;stroke-width:2px;}</style></defs><title>Wartung</title><g id="Ebene_2" data-name="Ebene 2"><path class="cls-1" d="M9.7,115.69l17.95-4.21-.27-1.23L18.82,112l-.08-.35c-.05-.22-.12-.54-.18-.92-.12-.76-.32-1.78-.45-2.8s-.25-2-.32-2.82l-.08-1.29,8.72-.57L26.35,102l-18.42.75.13,2c.05,1.22.25,2.84.45,4.46s.5,3.23.75,4.42Z"/><path class="cls-1" d="M16.83,133.83l16-9.13-.62-1.09-7.69,4.13s-.24-.45-.59-1.15-.83-1.6-1.22-2.56-.84-1.88-1.1-2.61l-.46-1.2,8.2-3s-.12-.29-.22-.59l-.19-.6-17.46,5.91A64.43,64.43,0,0,0,13.87,128c.63,1.51,1.43,2.94,2,4Z"/><path class="cls-1" d="M28.79,149.19l12.8-13.27-.91-.87-6.22,6.13-.88-.94c-.53-.56-1.24-1.31-1.9-2.11l-1-1.15-.81-1-.79-1,7-5.21s-.19-.25-.37-.51l-.36-.52L20.31,139.3a65.23,65.23,0,0,0,4,5.15c1,1.26,2.19,2.42,3,3.32S28.79,149.19,28.79,149.19Z"/><path class="cls-1" d="M44.58,160.58l8.55-16.33L52,143.66l-4.24,7.63-1.11-.65c-.67-.38-1.56-.91-2.41-1.49s-1.72-1.14-2.34-1.6l-1-.75,5.27-7-1-.78L33.66,153.46s.63.52,1.61,1.25,2.3,1.7,3.68,2.56,2.78,1.71,3.83,2.33c.52.32,1,.53,1.3.71Z"/><path class="cls-1" d="M63,167.06,66.53,149l-.62-.11c-.31-.05-.61-.14-.61-.14l-1.91,8.52-1.25-.3c-.76-.16-1.75-.45-2.73-.75s-2-.63-2.69-.88l-1.22-.43,3.09-8.17-1.17-.47-7,17.07,1.9.76c1.16.39,2.69,1,4.26,1.42A64.56,64.56,0,0,0,63,167.06Z"/><path class="cls-1" d="M82.4,168.08l-1.65-18.36-1.26.08.57,8.72-1.29.09-2.84.05c-1,0-2.06-.06-2.83-.08-.39,0-.71,0-.93-.06l-.35,0,.65-8.71-1.25-.11L69.37,168l2,.17c1.22.1,2.85.14,4.48.17s3.26,0,4.48-.14Z"/><path class="cls-1" d="M101.35,163.58l-6.77-17.15-1.17.45,3,8.2s-.48.2-1.22.43-1.7.6-2.7.85c-2,.58-4,1-4,1l-1.82-8.54-.61.14a5.93,5.93,0,0,1-.62.11l3.37,18.12.55-.09,1.45-.32,2-.46,2.32-.63c1.57-.44,3.12-1,4.28-1.38Z"/><path class="cls-1" d="M118.26,153.9l-11.35-14.53-1,.77,5.2,7-1.05.75c-.63.44-1.47,1-2.35,1.58s-1.74,1.1-2.43,1.47l-1.12.63L100,143.91a6.15,6.15,0,0,1-.55.3l-.56.28,8.38,16.42a64.66,64.66,0,0,0,5.67-3.24c1.4-.84,2.7-1.84,3.71-2.52Z"/><path class="cls-1" d="M131.75,139.86l-15-10.76-.74,1,7,5.27-.8,1c-.48.61-1.12,1.42-1.81,2.18l-1,1.14-.92,1-.9.93-6.16-6.19s-.22.23-.45.44l-.46.43,12.67,13.39s2.4-2.22,4.52-4.7c1.1-1.21,2.08-2.51,2.85-3.46S131.75,139.86,131.75,139.86Z"/><path class="cls-1" d="M140.75,122.59l-17.4-6.1-.21.59c-.1.3-.21.59-.21.59l8.17,3.1-.48,1.2-.49,1.22-.63,1.38c-.42.94-.88,1.86-1.25,2.54l-.6,1.14L120,124l-.63,1.09,15.92,9.3s.43-.7,1-1.77,1.35-2.52,2-4,1.3-3,1.76-4.13c.24-.56.39-1.05.51-1.39Z"/><path class="cls-1" d="M144.49,103.46l-18.41-.92,0,.63-.06.63,8.71.65-.11,1.28c0,.77-.21,1.79-.34,2.81s-.35,2-.48,2.79-.25,1.26-.25,1.26L125,110.74l-.3,1.22,17.9,4.41.48-2c.21-1.21.58-2.8.78-4.42l.32-2.38.18-2.08C144.47,104.28,144.49,103.46,144.49,103.46Z"/><path class="cls-1" d="M142.76,84.31l-17.95,4.21.27,1.23L133.64,88l.08.35c.05.22.12.54.18.92.12.76.32,1.78.45,2.8s.25,2,.32,2.82l.08,1.29-8.72.57.09,1.26,18.42-.75-.13-2c-.05-1.22-.25-2.84-.45-4.46s-.5-3.23-.75-4.42Z"/><path class="cls-1" d="M135.63,66.17l-16,9.13.62,1.09,7.69-4.13s.24.45.59,1.15.83,1.6,1.22,2.56.84,1.88,1.1,2.61l.46,1.2-8.2,3s.12.29.22.59l.19.6L141,78.07A64.43,64.43,0,0,0,138.59,72c-.63-1.51-1.43-2.94-2-4Z"/><path class="cls-1" d="M123.67,50.81l-12.8,13.27.91.87L118,58.82l.88.94c.53.56,1.24,1.31,1.9,2.11l1,1.15.81,1,.79,1-7,5.21s.19.25.37.51l.36.52L132.15,60.7a65.23,65.23,0,0,0-4-5.15c-1-1.26-2.19-2.42-3-3.32S123.67,50.81,123.67,50.81Z"/><path class="cls-1" d="M107.88,39.42,99.33,55.75l1.11.59,4.24-7.63,1.11.65c.67.38,1.56.91,2.41,1.49s1.72,1.14,2.34,1.6l1,.75-5.27,7,1,.78L118.8,46.54s-.63-.52-1.61-1.25-2.3-1.7-3.68-2.56-2.78-1.71-3.83-2.33c-.52-.32-1-.53-1.3-.71Z"/><path class="cls-1" d="M89.5,32.94,85.93,51l.62.11c.31.05.61.14.61.14l1.91-8.52,1.25.3c.76.16,1.75.45,2.73.75s2,.63,2.69.88l1.22.43-3.09,8.17,1.17.47,7-17.07-1.9-.76c-1.16-.39-2.69-1-4.26-1.42A64.56,64.56,0,0,0,89.5,32.94Z"/><path class="cls-1" d="M70.06,31.92l1.65,18.36L73,50.2l-.57-8.72,1.29-.09,2.84-.05c1,0,2.06.06,2.83.08.39,0,.71,0,.93.06l.35,0L80,50.23l1.25.11L83.09,32l-2-.17c-1.22-.1-2.85-.14-4.48-.17s-3.26,0-4.48.14Z"/><path class="cls-1" d="M51.11,36.42l6.77,17.15,1.17-.45-3-8.2s.48-.2,1.22-.43,1.7-.6,2.7-.85c2-.58,4-1,4-1l1.82,8.54.61-.14a5.94,5.94,0,0,1,.62-.11L63.65,32.81l-.55.09-1.45.32-2,.46-2.32.63c-1.57.44-3.12,1-4.28,1.38Z"/><path class="cls-1" d="M34.2,46.1,45.55,60.63l1-.77-5.2-7,1.05-.75c.63-.44,1.47-1,2.35-1.58s1.74-1.1,2.43-1.47l1.12-.63,4.17,7.68a6.15,6.15,0,0,1,.55-.3l.56-.28L45.19,39.09a64.66,64.66,0,0,0-5.67,3.24c-1.4.84-2.7,1.84-3.71,2.52Z"/><path class="cls-1" d="M20.71,60.14l15,10.76.74-1-7-5.27.8-1c.48-.61,1.12-1.42,1.81-2.18l1-1.14.92-1,.9-.93L41,64.59s.22-.23.45-.44l.46-.43L29.29,50.33s-2.4,2.22-4.52,4.7c-1.1,1.21-2.08,2.51-2.85,3.46S20.71,60.14,20.71,60.14Z"/><path class="cls-1" d="M11.71,77.41l17.4,6.1.21-.59c.1-.3.21-.59.21-.59l-8.17-3.1.48-1.2.49-1.22L23,75.43c.42-.94.88-1.86,1.25-2.54l.6-1.14L32.47,76l.63-1.09-15.92-9.3s-.43.7-1,1.77-1.35,2.52-2,4-1.3,3-1.76,4.13c-.24.56-.39,1.05-.51,1.39Z"/><path class="cls-1" d="M8,96.54l18.41.92,0-.63.06-.63-8.71-.65.11-1.28c0-.77.21-1.79.34-2.81s.35-2,.48-2.79.25-1.26.25-1.26l8.53,1.87.3-1.22L9.86,83.63l-.48,2c-.21,1.21-.58,2.8-.78,4.42l-.32,2.38L8.1,94.5C8,95.72,8,96.54,8,96.54Z"/></g><g id="Ebene_3" data-name="Ebene 3"><g id="Ebene_1-2" data-name="Ebene 1"><g id="Wartung---1280px-_-Wartung" data-name="Wartung---1280px-»-Wartung"><g id="Content"><g id="Fläche-Infografik---Neu"><g id="Page-1"><path id="Stroke-47" class="cls-2" d="M74.85,112.32v19.51h-7.5V102.31l-12.26-15V80.55l3.25-9.25,11-11H74.1l-5.25,13v6l6,6H84.6l4.5-4.5s3-13.76,3-14,3.25,0,3.25,0L99.11,80.3V91.56l-9.25,9.25-3.75,4.25v33.77h-15"/></g></g></g></g></g></g></svg>