<svg xmlns="http://www.w3.org/2000/svg" width="140" height="137"><path d="M8.17 113.99c4.77 0 7.18-3.2 7.18-11.41 0-7.46-2.25-10.22-6.63-10.22H4.3v21.63zm11.68-12.08c0 12.47-5.6 15.47-11.92 15.47H0V89h8.84c6.35 0 11.01 3 11.01 12.91zM26 117.38h4.3V89H26zm17.46-11.01h7.97L47.37 92.4zM36 117.38L44.68 89h5.49l9 28.38h-4.35l-2.44-7.7h-9.79l-2.33 7.7zm31.3-3.39h3.87c4.77 0 7.18-3.2 7.18-11.41 0-7.46-2.25-10.22-6.63-10.22H67.3zM71.84 89c6.35 0 11.01 3 11.01 12.91 0 12.47-5.6 15.47-11.92 15.47H63V89zm21.62 17.37h7.97L97.37 92.4zM86 117.38L94.68 89h5.49l9 28.38h-4.35l-2.44-7.7h-9.79l-2.33 7.7zM138.14 89l1.42 28.38h-4.03l-.98-21.23-6.51 18.47h-3.28l-6.63-18.55-1.06 21.31H113L114.5 89h5.01l6.95 20.25L133.4 89zM1.52 135.83h1.37c1.69 0 2.54-1.13 2.54-4.03 0-2.64-.8-3.61-2.35-3.61H1.52zM3.13 127c2.24 0 3.89 1.06 3.89 4.56 0 4.41-1.98 5.47-4.22 5.47H0V127zM9 137.04h1.52V127H9zm6.64-3.9h2.82l-1.44-4.94zm-2.64 3.9L16.07 127h1.94l3.18 10.04h-1.53l-.87-2.73h-3.46l-.82 2.73zM30.89 127l.5 10.04h-1.42l-.35-7.51-2.3 6.53h-1.16l-2.35-6.56-.37 7.54H22l.53-10.04h1.77l2.46 7.16 2.45-7.16zm4.75 6.14h2.82l-1.44-4.94zm-2.64 3.9L36.07 127h1.94l3.18 10.04h-1.53l-.87-2.73h-3.46l-.82 2.73zM50.24 127v10.04h-1.38l-4.38-7.43v7.43H43V127h1.47l4.28 7.37V127zm1.76 0h7.49v1.24h-2.98v8.8h-1.52v-8.8H52zm10.41 10.04L61 127h1.52c.94 7.77.95 7.77.96 7.77l2.18-6.83h1.17c2.11 6.83 2.12 6.83 2.12 6.83l.97-7.77h1.5l-1.41 10.04h-1.56l-2.23-6.89-2.28 6.89zM74 127h5.78v1.24h-4.26v3h3.7v1.23h-3.7v3.32h4.44v1.25H74zm11.27 4.58c1.04 0 1.87-.56 1.87-1.7 0-1.3-.66-1.69-1.93-1.69h-1.69v3.39zm-1.75 5.46H82V127h3.31c2.01 0 3.36.78 3.36 2.65 0 1.52-.82 2.32-1.67 2.77l1.87 4.62h-1.62l-1.68-4.25h-2.05zm11.55-5.29l2.88 5.28h-1.66l-2.46-4.53h-1.32v4.53H91V127h1.51v4.26h1.34l2.27-4.26h1.56zm4.21-4.75h6.77v1.17l-5.18 7.64h5v1.23H99v-1.08l5.25-7.76h-4.97zm8.72 0h5.78v1.24h-4.26v3h3.7v1.23h-3.7v3.32h4.44v1.25H108zm8.52 6.39c0 .42.02 1.08.17 1.48.26.7.91 1.03 1.8 1.03 1.07 0 1.6-.36 1.83-1.03.14-.43.15-.92.15-1.63V127h1.52v6.53c0 .57-.05 1.31-.22 1.82-.39 1.11-1.43 1.84-3.3 1.84-1.63 0-2.7-.56-3.15-1.61-.26-.58-.32-1.41-.32-2.06V127h1.52zm11.26-2.14h3.45v4.51c-.81.39-1.82.68-3.02.68-2.91 0-4.21-1.63-4.21-5.39 0-2.91 1.1-5.05 3.85-5.05 2.04 0 2.92.99 3.24 2.6l-1.4.33c-.32-1.06-.69-1.69-1.87-1.69-1.35 0-2.23 1.09-2.23 3.76 0 2.45.45 4.23 2.64 4.23.58 0 1.13-.13 1.52-.31v-2.5h-1.97zM134 127h5.78v1.24h-4.26v3h3.7v1.23h-3.7v3.32h4.44v1.25H134zM92.78 0H47.19L30 20.91l31.49 42.54 31.56-42.59h-5.34L61.49 56.24 35.44 21.05 49.21 4.29h41.55l13.78 16.76-37.22 50.27 2.67 3.6 39.98-54.01z" fill="#fefefe"/><path d="M8.17 113.99c4.77 0 7.18-3.2 7.18-11.41 0-7.46-2.25-10.22-6.63-10.22H4.3v21.63zm11.68-12.08c0 12.47-5.6 15.47-11.92 15.47H0V89h8.84c6.35 0 11.01 3 11.01 12.91zM26 117.38h4.3V89H26zm17.46-11.01h7.97L47.37 92.4zM36 117.38L44.68 89h5.49l9 28.38h-4.35l-2.44-7.7h-9.79l-2.33 7.7zm31.3-3.39h3.87c4.77 0 7.18-3.2 7.18-11.41 0-7.46-2.25-10.22-6.63-10.22H67.3zM71.84 89c6.35 0 11.01 3 11.01 12.91 0 12.47-5.6 15.47-11.92 15.47H63V89zm21.62 17.37h7.97L97.37 92.4zM86 117.38L94.68 89h5.49l9 28.38h-4.35l-2.44-7.7h-9.79l-2.33 7.7zM138.14 89l1.42 28.38h-4.03l-.98-21.23-6.51 18.47h-3.28l-6.63-18.55-1.06 21.31H113L114.5 89h5.01l6.95 20.25L133.4 89zM1.52 135.83h1.37c1.69 0 2.54-1.13 2.54-4.03 0-2.64-.8-3.61-2.35-3.61H1.52zM3.13 127c2.24 0 3.89 1.06 3.89 4.56 0 4.41-1.98 5.47-4.22 5.47H0V127zM9 137.04h1.52V127H9zm6.64-3.9h2.82l-1.44-4.94zm-2.64 3.9L16.07 127h1.94l3.18 10.04h-1.53l-.87-2.73h-3.46l-.82 2.73zM30.89 127l.5 10.04h-1.42l-.35-7.51-2.3 6.53h-1.16l-2.35-6.56-.37 7.54H22l.53-10.04h1.77l2.46 7.16 2.45-7.16zm4.75 6.14h2.82l-1.44-4.94zm-2.64 3.9L36.07 127h1.94l3.18 10.04h-1.53l-.87-2.73h-3.46l-.82 2.73zM50.24 127v10.04h-1.38l-4.38-7.43v7.43H43V127h1.47l4.28 7.37V127zm1.76 0h7.49v1.24h-2.98v8.8h-1.52v-8.8H52zm10.41 10.04L61 127h1.52c.94 7.77.95 7.77.96 7.77l2.18-6.83h1.17c2.11 6.83 2.12 6.83 2.12 6.83l.97-7.77h1.5l-1.41 10.04h-1.56l-2.23-6.89-2.28 6.89zM74 127h5.78v1.24h-4.26v3h3.7v1.23h-3.7v3.32h4.44v1.25H74zm11.27 4.58c1.04 0 1.87-.56 1.87-1.7 0-1.3-.66-1.69-1.93-1.69h-1.69v3.39zm-1.75 5.46H82V127h3.31c2.01 0 3.36.78 3.36 2.65 0 1.52-.82 2.32-1.67 2.77l1.87 4.62h-1.62l-1.68-4.25h-2.05zm11.55-5.29l2.88 5.28h-1.66l-2.46-4.53h-1.32v4.53H91V127h1.51v4.26h1.34l2.27-4.26h1.56zm4.21-4.75h6.77v1.17l-5.18 7.64h5v1.23H99v-1.08l5.25-7.76h-4.97zm8.72 0h5.78v1.24h-4.26v3h3.7v1.23h-3.7v3.32h4.44v1.25H108zm8.52 6.39c0 .42.02 1.08.17 1.48.26.7.91 1.03 1.8 1.03 1.07 0 1.6-.36 1.83-1.03.14-.43.15-.92.15-1.63V127h1.52v6.53c0 .57-.05 1.31-.22 1.82-.39 1.11-1.43 1.84-3.3 1.84-1.63 0-2.7-.56-3.15-1.61-.26-.58-.32-1.41-.32-2.06V127h1.52zm11.26-2.14h3.45v4.51c-.81.39-1.82.68-3.02.68-2.91 0-4.21-1.63-4.21-5.39 0-2.91 1.1-5.05 3.85-5.05 2.04 0 2.92.99 3.24 2.6l-1.4.33c-.32-1.06-.69-1.69-1.87-1.69-1.35 0-2.23 1.09-2.23 3.76 0 2.45.45 4.23 2.64 4.23.58 0 1.13-.13 1.52-.31v-2.5h-1.97zM134 127h5.78v1.24h-4.26v3h3.7v1.23h-3.7v3.32h4.44v1.25H134zM92.78 0H47.19L30 20.91l31.49 42.54 31.56-42.59h-5.34L61.49 56.24 35.44 21.05 49.21 4.29h41.55l13.78 16.76-37.22 50.27 2.67 3.6 39.98-54.01z" fill="#fefefe"/></svg>